# xmcd
#
# Track frame offsets:
#	150
#	19594
#	37192
#	55192
#	77335
#	97230
#	115319
#	140018
#	154251
#	170217
#	188136
#	205489
#	221152
#
# Disc length: 3173 seconds
#
# Revision: 1
# Processed by: cddbd v1.5.2PL0 Copyright (c) Steve Scherf et al.
# Submitted via: EasyCDDAExtractor 11.5.0.1
#
DISCID=c30c630d
DTITLE=Marcos Mella - La Penúltima Vida Del Último Gato
DYEAR=2009
DGENRE=Autor
TTITLE0=Esas Palabras
TTITLE1=El Laberinto
TTITLE2=Si Fueras
TTITLE3=No Calles Aún
TTITLE4=Amanece
TTITLE5=Escondido En El Silencio
TTITLE6=Vagabunda
TTITLE7=El Último Base
TTITLE8=Navegando Entre Letras
TTITLE9=Tatuaje
TTITLE10=Ritual
TTITLE11=Dejame Soñar Que Existes
TTITLE12=Me Pierdo
EXTD=
EXTT0=
EXTT1=
EXTT2=
EXTT3=
EXTT4=
EXTT5=
EXTT6=
EXTT7=
EXTT8=
EXTT9=
EXTT10=
EXTT11=
EXTT12=
PLAYORDER=
